<svg id="310fb70c-568b-483f-b13c-360635c4afee" data-name="Layer 1" xmlns="http://www.w3.org/2000/svg" viewBox="0 0 234.19 107.35"><defs><style>.\38 ec12752-2ba0-4ca7-944d-11d185f4a594{fill:#00458c;}.\38 77a5123-84a4-48d3-9ee2-80dac25b89fb{fill:#fff;}.\33 a16e34d-ada9-401c-adf3-ff13c7b2540e,.dbd4e3dd-e20c-4c13-a5cd-bb5636e6f032{fill:none;}.ffb88371-1c63-4eb8-b2e7-1cb47238fe3b{fill:#f6aa0d;}.dbd4e3dd-e20c-4c13-a5cd-bb5636e6f032{stroke:#fff;stroke-miterlimit:10;}</style></defs><title>baskin-logo-normal</title><polyline class="8ec12752-2ba0-4ca7-944d-11d185f4a594" points="144.1 13.01 226.94 13.01 226.94 95.85 144.1 95.85 144.1 13.01"/><polyline class="877a5123-84a4-48d3-9ee2-80dac25b89fb" points="194.2 12.35 194.2 54.89 217.26 46.26 217.26 12.47"/><polyline class="877a5123-84a4-48d3-9ee2-80dac25b89fb" points="154.04 27.93 154.04 70.48 171.67 63.58 171.67 19.45 154.04 27.93"/><polyline class="877a5123-84a4-48d3-9ee2-80dac25b89fb" points="173.13 64.12 186.91 59.62 186.91 96.2 173.13 96.2 173.13 64.12"/><rect class="3a16e34d-ada9-401c-adf3-ff13c7b2540e" x="136.16" y="6.1" width="97.53" height="94.97"/><path class="ffb88371-1c63-4eb8-b2e7-1cb47238fe3b" d="M184.79,151.11H192v-1.23h-4.84l4.58-28.46h-6.64v1.12h4.24ZM176,121.45h-2v26.86c0,1.64.91,3,3.66,3s3.63-1.29,3.63-2.89v-27h-2v27.63a1.5,1.5,0,0,1-1.66,1.47c-1.13,0-1.7-.67-1.7-1.44Zm-5.41,29.66V138.46a2.72,2.72,0,0,0-.75-2.2,5,5,0,0,0-1.35-.94,5.42,5.42,0,0,0,1.62-1.12,2,2,0,0,0,.48-1.43v-7.93c0-1,0-2-1-2.62a5.45,5.45,0,0,0-2.89-.73h-3.49v29.62h2V135.84h.87a2.72,2.72,0,0,1,1.79.53c.61.38.74,1.29.74,2.16v12.58Zm-2-26.86v7.93a3.64,3.64,0,0,1-.48,2.06,2.81,2.81,0,0,1-2,.76h-.91V122.29h1.18a4,4,0,0,1,1.44.28C168.5,122.85,168.63,123.41,168.63,124.25Zm-11.17,17.32v7.54c0,.77-.53,1.4-1.66,1.44a1.62,1.62,0,0,1-1.79-1.47V123.9c0-.91.26-1.92,1.79-1.92s1.66,1,1.66,1.92v6.53h2v-5.59c0-1.78-.22-3.56-3.62-3.56s-3.76,1.78-3.76,3.6v23.54c0,1.6,1,2.89,3.76,2.89s3.62-1.36,3.62-3v-6.74Zm-13.88-16.73c0-1.78-.18-3.56-3.58-3.56s-3.76,1.78-3.76,3.6v26.23h2V135.88h3.44v15.23h1.93Zm-5.37,9.85V123.9c0-.91.26-1.92,1.74-1.92s1.7,1,1.7,1.92v10.79Zm-4.76-13.24h-7.64v1.09h2.79v28.57h2V122.54h2.88Zm-16,0h-1.75v29.69h1.92V129.52l3.5,15.93v5.66h1.92V121.42h-1.92v18ZM112,124.84c0-1.78-.17-3.56-3.58-3.56s-3.75,1.78-3.75,3.6v26.23h2V135.88h3.45v15.23H112Zm-5.37,9.85V123.9c0-.91.26-1.92,1.75-1.92s1.7,1,1.7,1.92v10.79Zm-5.5,13.06v-5.62a8.87,8.87,0,0,0-.7-3.46A22,22,0,0,0,99,135.49l-1.83-3.35a10,10,0,0,1-1.14-3,14.76,14.76,0,0,1-.3-3.35V123.9c0-.87.17-1.89,1.79-1.92s1.7,1,1.7,1.92v6.46h2v-5.48c0-1.78-.22-3.6-3.71-3.6s-3.67,1.78-3.67,3.56v1.43a13.07,13.07,0,0,0,.27,3.25,9.39,9.39,0,0,0,1.13,3.15l1.92,3.52a14,14,0,0,1,1.62,3.53,8.14,8.14,0,0,1,.48,2.48v6.46c0,.87-.09,1.92-1.7,2s-1.79-1-1.79-2v-7.09H93.76v6.15c0,1.81.27,3.59,3.76,3.59S101.14,149.53,101.14,147.75Zm-18-6.18v7.54c0,.77-.53,1.4-1.66,1.44a1.62,1.62,0,0,1-1.79-1.47V123.9c0-.91.26-1.92,1.79-1.92s1.66,1,1.66,1.92v6.53h2v-5.59c0-1.78-.22-3.56-3.62-3.56s-3.76,1.78-3.76,3.6v23.54c0,1.6,1,2.89,3.76,2.89s3.62-1.36,3.62-3v-6.74ZM69,121.45H67v26.86c0,1.64.92,3,3.67,3s3.63-1.29,3.63-2.89v-27h-2v27.63a1.5,1.5,0,0,1-1.66,1.47c-1.13,0-1.7-.67-1.7-1.44Z" transform="translate(-59.5 -54.93)"/><path class="8ec12752-2ba0-4ca7-944d-11d185f4a594" d="M181.25,72.54V87h3V78.92a8.27,8.27,0,0,1,.21-2.47,3.19,3.19,0,0,1,.5-1.09,1.92,1.92,0,0,1,1.64-.76,1.43,1.43,0,0,1,1.62,1.29,10.11,10.11,0,0,1,.12,2V87h3V77.69a11,11,0,0,0-.21-2.94,3.2,3.2,0,0,0-.76-1.5,3.56,3.56,0,0,0-2.74-1.06c-1.79,0-2.85.73-3.62,2.59V72.54Zm-3.47-1.94V67.39h-3.15V70.6Zm-3.06,1.94V87h3V72.54Zm-12.53-5.12V87h3V82.42l1.94-2.64L170,87h3.23l-4.18-9.5,3.77-5h-3L165.19,79V67.42Zm-2.79,8.5c-.71-2.5-2.24-3.73-4.68-3.73a4.55,4.55,0,0,0-4.85,4.47,3.75,3.75,0,0,0,1.26,2.85,8,8,0,0,0,3.3,1.56,5.67,5.67,0,0,1,1.85.79,1.7,1.7,0,0,1,.71,1.42c0,1.14-.89,1.91-2.27,1.91-1.56,0-2.47-.8-2.79-2.5l-2.56.5A4.4,4.4,0,0,0,150.72,86a5.72,5.72,0,0,0,3.88,1.35c3.15,0,5.33-1.88,5.33-4.58a3.76,3.76,0,0,0-1.41-3,8,8,0,0,0-2.89-1.36,6.87,6.87,0,0,1-2.17-.88,1.59,1.59,0,0,1-.74-1.41,1.77,1.77,0,0,1,1.88-1.77c1.21,0,1.94.65,2.44,2.18ZM144.31,80v.71c0,2.65-1.18,4.5-2.85,4.5-1.24,0-1.94-.8-1.94-2.18,0-2.06,1.32-3.09,3.91-3.09A5.51,5.51,0,0,1,144.31,80Zm-4.5-3.35c.29-1.53,1.06-2.24,2.35-2.24,1.53,0,2.15.89,2.15,3.12v.59a5.85,5.85,0,0,0-.65,0c-3.14,0-5.2.68-6.26,2a5,5,0,0,0-1,3.12,3.84,3.84,0,0,0,4.06,4.17,4.06,4.06,0,0,0,3-1.14,5.53,5.53,0,0,0,1.12-1.62,8.82,8.82,0,0,0,.2,2.41h2.8a15.5,15.5,0,0,1-.24-4V78.1a8.6,8.6,0,0,0-.44-3.65A3.22,3.22,0,0,0,145.6,73a5.76,5.76,0,0,0-3.2-.85c-3,0-5,1.47-5.47,4.09ZM124.4,84.45V78.07h2.35a4.19,4.19,0,0,1,2.68.62,3.11,3.11,0,0,1,1.18,2.62c0,2-1.24,3.14-3.59,3.14Zm0-8.88V70h2.38c2.24,0,3.21.83,3.21,2.77s-1,2.85-3.53,2.85Zm-3.18-8.15V87h6c2.27,0,3.36-.23,4.44-.94a5.16,5.16,0,0,0,2.24-4.47,5.25,5.25,0,0,0-1.35-3.71,4.32,4.32,0,0,0-2.18-1.2,4.09,4.09,0,0,0,2.94-4.3,4.87,4.87,0,0,0-2-4.23c-1-.62-1.73-.77-4.18-.77Z" transform="translate(-59.5 -54.93)"/><path class="8ec12752-2ba0-4ca7-944d-11d185f4a594" d="M184.75,110.32c.88.06,1,.06,2.44.12a5.62,5.62,0,0,1,2.53.38,1.51,1.51,0,0,1,.71,1.38c0,1.32-1.18,2-3.45,2-2.44,0-3.5-.62-3.5-2A2,2,0,0,1,184.75,110.32Zm2-12.27c1.32,0,2,1,2,2.86s-.74,2.79-2,2.79-2.06-1-2.06-2.76S185.4,98.05,186.75,98.05ZM193,94.11a5.41,5.41,0,0,0-.91-.06c-1.64,0-2.35.68-2.67,2.68a5.39,5.39,0,0,0-2.77-.65c-3,0-5.09,2-5.09,4.77a4,4,0,0,0,1.89,3.7c-1.5.77-2.15,1.65-2.15,2.92a2.57,2.57,0,0,0,1.59,2.38,2.69,2.69,0,0,0-2.12,2.79c0,2.38,2.06,3.65,5.82,3.65,4.3,0,6.62-1.59,6.62-4.5a3.28,3.28,0,0,0-2.32-3.44,11.42,11.42,0,0,0-3.36-.44l-1.53-.09c-1.55-.09-2.11-.38-2.11-1.21,0-.59.29-.91,1.08-1.26a6.78,6.78,0,0,0,1.86.26c3,0,5-1.94,5-4.67a4.88,4.88,0,0,0-1.09-3.12c.2-1.12.64-1.59,1.56-1.59a3.44,3.44,0,0,1,.67.09Zm-24.79,2.33v14.5h3v-8.12a8.27,8.27,0,0,1,.21-2.47,3.11,3.11,0,0,1,.5-1.09,1.92,1.92,0,0,1,1.64-.76,1.43,1.43,0,0,1,1.62,1.29,10,10,0,0,1,.12,2v9.18h3v-9.36a11.06,11.06,0,0,0-.21-2.94,3.2,3.2,0,0,0-.76-1.5,3.6,3.6,0,0,0-2.74-1.06c-1.79,0-2.85.74-3.62,2.59V96.44Zm-3.47-1.94V91.29H161.6V94.5Zm-3.06,1.94v14.5h3V96.44Zm-8,0v14.5h3v-7.39c0-2.82,1.12-4.32,3.21-4.32.17,0,.29,0,.59.06V96.17a4.69,4.69,0,0,0-.56-.06,3.11,3.11,0,0,0-2.15,1,5.44,5.44,0,0,0-1.44,2.59V96.44Zm-5.53,5.67h-5.08c.14-2.5,1-3.82,2.55-3.82s2.53,1.32,2.53,3.76Zm3,2c0-3.06-.2-3.91-1.06-5.53a4.83,4.83,0,0,0-4.41-2.53c-3.59,0-5.76,3-5.76,7.83,0,4.7,2.09,7.38,5.73,7.38,2.92,0,4.65-1.5,5.39-4.59l-2.71-.38c-.47,2-1.18,2.7-2.56,2.7a2.64,2.64,0,0,1-2.59-2.26,10.49,10.49,0,0,1-.2-2.62Zm-16-2H130c.14-2.5,1.06-3.82,2.56-3.82s2.53,1.32,2.53,3.76Zm3,2c0-3.06-.2-3.91-1-5.53a4.84,4.84,0,0,0-4.42-2.53c-3.58,0-5.76,3-5.76,7.83,0,4.7,2.09,7.38,5.73,7.38,2.92,0,4.65-1.5,5.39-4.59l-2.71-.38c-.47,2-1.18,2.7-2.56,2.7a2.64,2.64,0,0,1-2.59-2.26,10.49,10.49,0,0,1-.2-2.62Zm-24-7.7v14.5h3v-8.12a8.72,8.72,0,0,1,.2-2.47,3.51,3.51,0,0,1,.5-1.09,1.94,1.94,0,0,1,1.65-.76,1.43,1.43,0,0,1,1.62,1.29,10.27,10.27,0,0,1,.11,2v9.18h3v-9.36a11.19,11.19,0,0,0-.2-2.94,3.13,3.13,0,0,0-.77-1.5,3.56,3.56,0,0,0-2.73-1.06c-1.8,0-2.85.74-3.62,2.59V96.44Zm-3.47-1.94V91.29h-3.15V94.5Zm-3.06,1.94v14.5h3V96.44Zm-10,13.88c.88.06,1,.06,2.44.12a5.62,5.62,0,0,1,2.53.38,1.51,1.51,0,0,1,.71,1.38c0,1.32-1.18,2-3.45,2-2.44,0-3.49-.62-3.49-2A2,2,0,0,1,97.52,110.32Zm2-12.27c1.32,0,2,1,2,2.86s-.74,2.79-2,2.79-2.06-1-2.06-2.76S98.17,98.05,99.52,98.05Zm6.26-3.94a5.41,5.41,0,0,0-.91-.06c-1.64,0-2.35.68-2.67,2.68a5.39,5.39,0,0,0-2.77-.65c-3,0-5.09,2-5.09,4.77a4,4,0,0,0,1.89,3.7c-1.5.77-2.15,1.65-2.15,2.92a2.57,2.57,0,0,0,1.59,2.38,2.69,2.69,0,0,0-2.12,2.79c0,2.38,2.06,3.65,5.82,3.65,4.3,0,6.62-1.59,6.62-4.5a3.28,3.28,0,0,0-2.32-3.44,11.42,11.42,0,0,0-3.36-.44l-1.53-.09c-1.55-.09-2.11-.38-2.11-1.21,0-.59.29-.91,1.08-1.26a6.78,6.78,0,0,0,1.86.26c3,0,5-1.94,5-4.67a4.88,4.88,0,0,0-1.09-3.12c.2-1.12.65-1.59,1.56-1.59a3.44,3.44,0,0,1,.67.09ZM81,96.44v14.5h3v-8.12a8.27,8.27,0,0,1,.21-2.47,3.11,3.11,0,0,1,.5-1.09,1.92,1.92,0,0,1,1.64-.76A1.43,1.43,0,0,1,88,99.79a10,10,0,0,1,.12,2v9.18h3v-9.36a11.06,11.06,0,0,0-.21-2.94,3.11,3.11,0,0,0-.76-1.5,3.6,3.6,0,0,0-2.74-1.06c-1.79,0-2.85.74-3.61,2.59V96.44ZM67.58,91.32v19.62H78.93v-2.65H70.82v-6.15h6.26V99.55H70.82V93.94h8V91.32Z" transform="translate(-59.5 -54.93)"/><rect class="3a16e34d-ada9-401c-adf3-ff13c7b2540e" x="7.5" y="6.1" width="226.19" height="94.97"/><rect class="dbd4e3dd-e20c-4c13-a5cd-bb5636e6f032" x="0.5" y="0.5" width="233.19" height="106.35"/></svg>