<svg xmlns="http://www.w3.org/2000/svg" viewBox="0 0 157.2 51.3"><path d="M66.27 36.822l-1.1-3.2h-6.8l-1.1 3.2h-4.9l6.6-19h5.6l6.6 19h-4.9zm-6.7-6.7h4.5l-2.2-6.8-2.3 6.8zm18.5-6.4c1-1.4 2.5-2.1 4.4-2.1s3.5.7 4.9 2.2c1.3 1.4 2 3.3 2 5.5s-.7 4.1-2 5.5c-1.3 1.4-2.9 2.2-4.8 2.2s-3.4-.8-4.5-2.4v9.4h-4.6v-22.2h4.6v1.9zm5.6 8.3c.7-.6 1-1.6 1-2.7 0-1.2-.3-2.1-1-2.8-.7-.6-1.4-1-2.3-1-.9 0-1.6.3-2.3 1-.7.6-1 1.6-1 2.7 0 1.2.3 2.1 1 2.8.7.6 1.4 1 2.3 1 .9 0 1.6-.4 2.3-1zm13.2-8.3c1-1.4 2.5-2.1 4.4-2.1s3.5.7 4.9 2.2c1.3 1.4 2 3.3 2 5.5s-.7 4.1-2 5.5c-1.3 1.4-2.9 2.2-4.8 2.2s-3.4-.8-4.5-2.4v9.4h-4.6v-22.2h4.6v1.9zm5.6 8.3c.7-.6 1-1.6 1-2.7 0-1.2-.3-2.1-1-2.8-.7-.6-1.4-1-2.3-1-.9 0-1.6.3-2.3 1-.7.6-1 1.6-1 2.7 0 1.2.3 2.1 1 2.8.7.6 1.4 1 2.3 1 .9 0 1.7-.4 2.3-1zm15.1.9h1.6v3.9h-2.3c-1.7 0-3-.4-3.9-1.1s-1.4-2-1.4-3.8v-6.3h-1.4v-3.8h1.4v-3.7h4.6v3.7h3v3.8h-3v6.3c0 .6.4 1 1.4 1zm6 1.9c-1.5-1.4-2.3-3.3-2.3-5.6s.8-4.2 2.3-5.6c1.5-1.4 3.4-2.1 5.6-2.1 2.2 0 4.1.7 5.6 2.1 1.5 1.4 2.3 3.3 2.3 5.6s-.7 4.2-2.2 5.6c-1.5 1.4-3.4 2.1-5.6 2.1-2.3.1-4.2-.7-5.7-2.1zm7.8-2.8c.6-.6.9-1.6.9-2.8 0-1.2-.3-2.2-.9-2.8-.6-.6-1.4-1-2.2-1-.9 0-1.6.3-2.2 1-.6.6-.9 1.6-.9 2.8 0 1.2.3 2.2 1 2.8.6.6 1.4 1 2.3 1s1.4-.3 2-1zm13.2-10.3v2.2c1-1.6 2.5-2.4 4.6-2.4 1.7 0 3.1.6 4.2 1.7 1.1 1.2 1.6 2.7 1.6 4.7v8.8h-4.6v-8.2c0-1-.3-1.7-.8-2.3-.5-.5-1.2-.8-2.1-.8-.9 0-1.6.3-2.1.8s-.8 1.3-.8 2.3v8.2h-4.6v-15.1h4.6z" fill="#fff"/><g transform="translate(4.362 -31.343)"><linearGradient id="a" gradientUnits="userSpaceOnUse" x1="-224.802" y1="438.731" x2="-223.802" y2="438.731" gradientTransform="matrix(40.649 0 0 -24.417 9137.984 10782.911)"><stop offset=".007" stop-color="#3cb5fb"/><stop offset="1" stop-color="#0071ff"/></linearGradient><path d="M40.6 70.6L18.5 58.2 0 69.3l20.6 13.3 20-12z" fill="url(#a)"/><linearGradient id="b" gradientUnits="userSpaceOnUse" x1="-223.567" y1="437.441" x2="-224.502" y2="439.107" gradientTransform="matrix(40.649 0 0 -24.417 9137.984 10782.911)"><stop offset="0" stop-color="#e2e1e6"/><stop offset=".425" stop-color="#fff"/><stop offset="1" stop-color="#e2e1e6"/></linearGradient><path d="M40.6 70.6L18.5 58.2 0 69.3l20.6 13.3 20-12z" fill="url(#b)"/><g transform="translate(-4.36 31.34)"><linearGradient id="c" gradientUnits="userSpaceOnUse" x1="-220.32" y1="412.095" x2="-219.32" y2="412.095" gradientTransform="matrix(39.775 0 0 -35.453 8767.73 14630.23)"><stop offset="0" stop-color="#00fdfa"/><stop offset="0" stop-color="#e2e1e6"/><stop offset="1" stop-color="#fff"/></linearGradient><path d="M44.3 14.1L25.1 2.5 4.5 15.9v22l39.8-23.8z" fill="url(#c)"/></g></g></svg>