<svg id="monitor" xmlns="http://www.w3.org/2000/svg" viewBox="0 0 52.303 52.303"><defs><style>.cls-2{fill:#322153}</style></defs><path id="Path_306" data-name="Path 306" d="M8 303.214a3.618 3.618 0 0 0 3.607 3.607h43.286a3.618 3.618 0 0 0 3.607-3.607V296H8z" transform="translate(-7.098 -262.634)" fill="#e7475e"/><g id="Group_148" data-name="Group 148"><path id="Path_307" data-name="Path 307" class="cls-2" d="M47.794 0H4.509A4.465 4.465 0 0 0 0 4.509v32.464a4.465 4.465 0 0 0 4.509 4.509h12.986l-2.705 5.411h-1.263a2.657 2.657 0 0 0-2.706 2.707 2.456 2.456 0 0 0 .812 1.894 2.6 2.6 0 0 0 1.894.812h25.25a2.657 2.657 0 0 0 2.705-2.706 2.774 2.774 0 0 0-2.705-2.705h-1.263l-2.705-5.411h12.985a4.465 4.465 0 0 0 4.506-4.511V4.509A4.465 4.465 0 0 0 47.794 0zM35.53 46.893H18.937a.9.9 0 0 0 0 1.8h19.84a.925.925 0 0 1 .9.9.852.852 0 0 1-.9.9h-25.25a.925.925 0 0 1-.9-.9.852.852 0 0 1 .9-.9h1.8a.867.867 0 0 0 .812-.541l1.533-3.066h4.87a.9.9 0 1 0 0-1.8h-3.965l.9-1.8h13.348zm12.264-7.214H4.509A2.657 2.657 0 0 1 1.8 36.973V4.509A2.657 2.657 0 0 1 4.509 1.8h43.285A2.657 2.657 0 0 1 50.5 4.509v24.348H4.509a.9.9 0 1 0 0 1.8H50.5v6.312a2.657 2.657 0 0 1-2.706 2.709z"/><path id="Path_308" data-name="Path 308" class="cls-2" d="M210.705 288a2.705 2.705 0 1 0 2.705 2.705 2.657 2.657 0 0 0-2.705-2.705zm0 3.607a.9.9 0 1 1 .9-.9.852.852 0 0 1-.9.9z" transform="translate(-184.554 -255.536)"/><path id="Path_309" data-name="Path 309" class="cls-2" d="M32.9 41.018a.819.819 0 0 0 .631-.271l7.214-7.214a.893.893 0 0 0-1.262-1.262l-7.214 7.214a.872.872 0 0 0 0 1.262.819.819 0 0 0 .631.271z" transform="translate(-28.393 -28.393)"/><path id="Path_310" data-name="Path 310" class="cls-2" d="M32.9 37.411a.819.819 0 0 0 .631-.271l3.607-3.607a.893.893 0 0 0-1.262-1.262l-3.607 3.607a.872.872 0 0 0 0 1.262.819.819 0 0 0 .631.271z" transform="translate(-28.393 -28.393)"/><path id="Path_311" data-name="Path 311" class="cls-2" d="M67.878 64.271l-3.607 3.607a.872.872 0 0 0 0 1.262.872.872 0 0 0 1.262 0l3.607-3.607a.893.893 0 0 0-1.262-1.262z" transform="translate(-56.786 -56.786)"/><path id="Path_312" data-name="Path 312" class="cls-2" d="M388.509 288a.852.852 0 0 0-.9.9 2.581 2.581 0 0 1-2.705 2.705.9.9 0 0 0-.9.9.852.852 0 0 0 .9.9 4.335 4.335 0 0 0 4.509-4.509.852.852 0 0 0-.904-.896z" transform="translate(-340.715 -255.536)"/></g></svg>