<svg xmlns="http://www.w3.org/2000/svg" viewBox="0 0 281.522 410.044"><defs><style>.cls-2{fill:#322153}</style></defs><g id="placeholder" transform="translate(-76.364)"><path id="Path_379" data-name="Path 379" d="M218.278 416.268c53.857 0 134.642-167.992 134.642-242.355a134.642 134.642 0 1 0-269.283 0c-.001 74.363 80.784 242.355 134.641 242.355zm0-323.14a80.785 80.785 0 1 1-80.785 80.785 80.789 80.789 0 0 1 80.785-80.784z" transform="translate(-1.153 -6.224)" fill="#e7475e"/><g id="Group_158" data-name="Group 158" transform="translate(76.364)"><path id="Path_380" data-name="Path 380" class="cls-2" d="M227.268 237.809a86.9 86.9 0 1 0-86.9-86.9 87 87 0 0 0 86.9 86.9zm0-161.57A74.665 74.665 0 1 1 152.6 150.9a74.755 74.755 0 0 1 74.668-74.661z" transform="translate(-86.507 -10.143)"/><path id="Path_381" data-name="Path 381" class="cls-2" d="M217.125 389.235c58.966 0 140.761-172.509 140.761-248.474C357.886 63.147 294.739 0 217.125 0S76.364 63.147 76.364 140.761c0 75.965 81.795 248.474 140.761 248.474zm0-377a128.67 128.67 0 0 1 128.522 128.526c0 75.211-80.684 236.239-128.522 236.239S88.6 215.972 88.6 140.761A128.675 128.675 0 0 1 217.125 12.239z" transform="translate(-76.364)"/><path id="Path_382" data-name="Path 382" class="cls-2" d="M227.268 395.712c-18.2 0-54.961-60.925-75.244-104.192a6.121 6.121 0 0 0-11.088 5.19c8.711 18.581 53.789 111.234 86.325 111.234a6.116 6.116 0 0 0 .007-12.232z" transform="translate(-86.507 -45.644)"/><path id="Path_383" data-name="Path 383" class="cls-2" d="M242.483 44.239a101.711 101.711 0 0 1 101.594 101.594 6.119 6.119 0 0 0 12.239 0A113.967 113.967 0 0 0 242.483 32a6.119 6.119 0 1 0 0 12.239z" transform="translate(-101.722 -5.072)"/></g></g></svg>