<svg xmlns="http://www.w3.org/2000/svg" viewBox="0 0 59.313 59.358"><defs><style>.cls-2{fill:#322153}</style></defs><g id="target" transform="translate(-.177)"><circle id="Ellipse_22" data-name="Ellipse 22" cx="16.374" cy="16.374" r="16.374" transform="translate(13.439 17.401)" fill="#e7475e"/><g id="Group_149" data-name="Group 149" transform="translate(.177)"><path id="Path_313" data-name="Path 313" class="cls-2" d="M75.45 75.729c.1 0 .1-.1 0 0a25.448 25.448 0 0 0 .1-36.124v-.1c0-.1 0 0-.1 0a25.362 25.362 0 0 0-18.011-7.47 25.689 25.689 0 0 0-14.327 4.4 1.036 1.036 0 0 0 1.126 1.74 22.833 22.833 0 0 1 12.178-4.093v3.07a.967.967 0 0 0 1.023 1.023 19.435 19.435 0 0 1 19.443 19.441.967.967 0 0 0 1.023 1.023h3.07a23.184 23.184 0 0 1-6.14 14.839l-2.149-2.149a1.013 1.013 0 0 0-1.433 1.433L73.4 74.91a23.412 23.412 0 0 1-14.839 6.14v-3.07a1.023 1.023 0 0 0-2.047 0v3.07a23.184 23.184 0 0 1-14.839-6.14l2.149-2.149a1.013 1.013 0 0 0-1.424-1.433l-2.149 2.149a23.412 23.412 0 0 1-6.14-14.839h3.07a1.023 1.023 0 0 0 0-2.047H33.9a23.745 23.745 0 0 1 3.89-11.972 1.036 1.036 0 0 0-1.74-1.126 25.645 25.645 0 0 0-4.2 14.122 25.362 25.362 0 0 0 7.47 18.011v.1c0 .1 0 0 .1 0a25.447 25.447 0 0 0 36.022 0zm-3.582-33.975a21.111 21.111 0 0 0-13.406-5.526v-2.149a23.184 23.184 0 0 1 14.838 6.14zm1.432 1.432l1.433-1.433a23.412 23.412 0 0 1 6.14 14.839h-2.046A21.111 21.111 0 0 0 73.3 43.186z" transform="translate(-27.803 -27.934)"/><path id="Path_314" data-name="Path 314" class="cls-2" d="M4.843.106a.9.9 0 0 0-.614.921V4.1h-3.07a.9.9 0 0 0-.921.614 1.115 1.115 0 0 0 .2 1.126l4.098 4.09a.929.929 0 0 0 .716.307h3.684l18.42 18.42h-1.637a1.023 1.023 0 0 0 0 2.047h4.093a.376.376 0 0 0 .307-.1h.1c.1 0 .1-.1.2-.1a.1.1 0 0 0 .1-.1c.1-.1.1-.2.2-.307 0-.1.1-.2.1-.307v-4.1a1.023 1.023 0 0 0-2.047 0v1.637L10.369 8.907V5.12a.929.929 0 0 0-.307-.716L5.968.311A.934.934 0 0 0 4.843.106zm.819 8.084L3.615 6.144h1.228l2.046 2.047zm.614-4.707L8.322 5.53v1.228L6.275 4.711z" transform="translate(-.177)"/><path id="Path_315" data-name="Path 315" class="cls-2" d="M99.437 104.628a1.035 1.035 0 0 0-1.433.409 17.072 17.072 0 0 0-2.149 8.391 17.4 17.4 0 1 0 17.4-17.4 17.072 17.072 0 0 0-8.391 2.149 1.054 1.054 0 0 0 1.023 1.842 15.62 15.62 0 0 1 7.47-1.944A15.35 15.35 0 1 1 98 113.429a14.809 14.809 0 0 1 1.944-7.47 1.168 1.168 0 0 0-.507-1.331z" transform="translate(-83.616 -83.748)"/><circle id="Ellipse_23" data-name="Ellipse 23" class="cls-2" cx="1.023" cy="1.023" r="1.023" transform="translate(28.613 16.378)"/><circle id="Ellipse_24" data-name="Ellipse 24" class="cls-2" cx="1.023" cy="1.023" r="1.023" transform="translate(28.613 40.938)"/><circle id="Ellipse_25" data-name="Ellipse 25" class="cls-2" cx="1.023" cy="1.023" r="1.023" transform="translate(16.332 28.658)"/><circle id="Ellipse_26" data-name="Ellipse 26" class="cls-2" cx="1.023" cy="1.023" r="1.023" transform="translate(40.893 28.658)"/><circle id="Ellipse_27" data-name="Ellipse 27" class="cls-2" cx="1.023" cy="1.023" r="1.023" transform="translate(37.316 37.342)"/><circle id="Ellipse_28" data-name="Ellipse 28" class="cls-2" cx="1.023" cy="1.023" r="1.023" transform="translate(19.929 37.361)"/><circle id="Ellipse_29" data-name="Ellipse 29" class="cls-2" cx="1.023" cy="1.023" r="1.023" transform="translate(37.296 19.954)"/><path id="Path_316" data-name="Path 316" class="cls-2" d="M253.532 224.032a.967.967 0 0 0-1.023 1.023 27.646 27.646 0 0 1-27.63 27.63 1.023 1.023 0 1 0 0 2.047 29.7 29.7 0 0 0 29.677-29.677.967.967 0 0 0-1.024-1.023z" transform="translate(-195.242 -195.374)"/></g></g></svg>